<?xml version="1.0" standalone="no"?>
<!DOCTYPE svg PUBLIC "-//W3C//DTD SVG 20010904//EN"
 "http://www.w3.org/TR/2001/REC-SVG-20010904/DTD/svg10.dtd">
<svg version="1.0" xmlns="http://www.w3.org/2000/svg"
 width="1875.000000pt" height="586.000000pt" viewBox="0 0 1875.000000 586.000000"
 preserveAspectRatio="xMidYMid meet">

<g transform="translate(0.000000,586.000000) scale(0.100000,-0.100000)"
fill="#000000" stroke="none">
<path d="M1223 3573 c3 -1048 3 -1070 24 -1158 100 -424 299 -718 633 -937
154 -101 350 -190 524 -239 l70 -19 130 44 c523 175 878 505 1030 956 14 41
37 131 52 200 l28 125 3 1048 4 1047 -1251 0 -1251 0 4 -1067z m2405 82 c2
-571 -1 -933 -8 -1010 -27 -300 -107 -536 -252 -740 -77 -107 -239 -264 -349
-338 -110 -73 -305 -167 -441 -212 -124 -41 -118 -42 -296 26 -282 107 -502
258 -662 454 -142 175 -222 348 -282 612 -21 97 -22 109 -25 1101 l-4 1002
1158 -2 1158 -3 3 -890z"/>
<path d="M3130 4415 c-106 -30 -189 -99 -233 -193 -18 -40 -21 -65 -21 -162 0
-97 3 -122 21 -162 31 -67 88 -125 157 -161 59 -31 64 -32 191 -32 116 0 136
3 183 24 l54 24 -7 55 c-11 85 -9 84 -73 54 -48 -23 -71 -27 -144 -27 -80 0
-89 2 -129 30 -62 44 -88 102 -89 196 0 153 78 235 222 233 54 0 78 -6 126
-31 l60 -30 6 41 c4 22 9 55 12 72 6 31 4 33 -53 54 -76 29 -207 36 -283 15z"/>
<path d="M1452 4158 l3 -263 27 -52 c28 -52 63 -84 128 -119 29 -16 57 -19
160 -19 117 0 128 2 176 27 29 15 68 46 88 70 59 68 66 109 66 380 l0 238 -85
0 -85 0 0 -243 c0 -272 -5 -293 -71 -329 -46 -24 -135 -24 -173 1 -64 43 -66
51 -66 324 l0 247 -86 0 -85 0 3 -262z"/>
<path d="M2240 4066 l0 -356 163 0 c113 0 179 4 211 14 107 32 160 96 160 191
0 62 -23 107 -74 144 l-39 28 35 32 c40 39 48 63 42 137 -4 45 -10 61 -38 89
-53 55 -102 67 -292 72 l-168 5 0 -356z m295 220 c41 -18 58 -48 50 -87 -9
-41 -44 -60 -120 -67 l-65 -5 0 87 0 86 50 0 c28 0 66 -6 85 -14z m40 -290
c35 -23 48 -61 35 -100 -15 -47 -55 -66 -139 -66 l-71 0 0 96 0 97 74 -5 c47
-3 85 -11 101 -22z"/>
<path d="M1700 3610 c-25 -6 -77 -21 -117 -35 -40 -14 -87 -25 -103 -25 l-30
0 0 -80 0 -80 31 0 c18 0 75 14 128 31 133 44 229 43 360 0 125 -41 192 -41
320 0 133 44 229 43 360 0 126 -42 195 -42 316 0 128 44 234 44 360 0 49 -17
104 -31 122 -31 l33 0 0 80 0 80 -28 0 c-16 0 -67 13 -113 29 -148 51 -248 50
-402 -5 -97 -34 -169 -32 -282 8 -77 27 -103 32 -185 31 -79 0 -111 -5 -191
-31 -124 -41 -180 -41 -300 -2 -99 33 -207 45 -279 30z"/>
<path d="M2446 3217 c-10 -72 -35 -256 -56 -407 -21 -151 -42 -303 -46 -337
-3 -35 -9 -63 -13 -62 -3 0 -100 159 -216 354 -115 194 -211 352 -212 351 -2
-2 13 -72 33 -157 19 -85 46 -201 59 -259 13 -58 33 -145 45 -195 36 -154 38
-166 30 -163 -5 2 -108 99 -230 217 -121 117 -222 212 -224 210 -3 -4 129
-329 204 -503 17 -38 29 -71 27 -73 -2 -1 -88 60 -190 137 -103 77 -188 140
-191 140 -7 0 74 -202 119 -295 93 -195 221 -350 382 -464 94 -67 279 -161
414 -210 l85 -31 85 30 c117 43 309 138 402 200 145 97 271 241 369 420 50 94
153 339 144 347 -1 2 -87 -60 -189 -137 -103 -77 -187 -137 -187 -132 0 4 52
133 115 286 63 154 115 281 115 284 0 2 -68 -60 -151 -139 -83 -79 -187 -177
-231 -218 -80 -75 -80 -75 -73 -40 8 40 70 312 127 552 21 93 38 173 36 178
-2 5 -97 -148 -213 -340 -115 -193 -210 -349 -212 -347 -2 2 -19 115 -38 252
-73 520 -96 678 -99 681 -1 1 -10 -57 -20 -130z"/>
<path d="M1724 3329 c-28 -3 -87 -18 -130 -32 -44 -14 -92 -27 -109 -29 l-30
-3 -3 -83 -3 -83 38 6 c21 4 78 20 126 36 126 41 222 40 354 -3 128 -42 197
-42 310 -3 l81 29 6 51 c4 27 9 64 12 82 l6 32 -49 -14 c-26 -7 -68 -21 -93
-30 -70 -26 -160 -22 -265 13 -99 33 -173 42 -251 31z"/>
<path d="M3073 3329 c-33 -5 -92 -21 -130 -35 -82 -31 -174 -34 -248 -9 -27
10 -70 24 -94 31 l-43 14 6 -68 c11 -100 9 -98 99 -129 110 -37 182 -36 304 6
126 42 224 43 355 2 51 -16 108 -32 126 -36 l32 -7 0 86 0 86 -35 0 c-19 0
-58 9 -87 21 -47 19 -186 50 -213 47 -5 0 -38 -4 -72 -9z"/>
<path d="M1640 3028 c-36 -11 -93 -27 -127 -36 l-63 -16 0 -79 0 -80 41 7 c23
4 73 18 112 32 51 18 101 28 168 31 l96 6 -9 41 c-6 22 -14 58 -19 79 l-10 37
-62 -1 c-34 0 -91 -10 -127 -21z"/>
<path d="M3087 2979 c-9 -41 -17 -77 -17 -81 0 -5 33 -8 74 -8 57 0 100 -8
186 -35 157 -49 150 -51 150 45 l0 79 -37 7 c-21 4 -69 18 -108 31 -40 14
-105 27 -150 30 l-81 6 -17 -74z"/>
<path d="M2255 3008 c-30 -12 -75 -21 -112 -22 -35 0 -63 -2 -63 -3 0 -1 21
-36 46 -78 51 -84 55 -85 139 -56 l50 18 11 81 c12 94 12 94 -71 60z"/>
<path d="M2604 2978 c13 -104 17 -116 39 -122 12 -3 43 -12 69 -20 l47 -15 45
78 c25 43 46 80 46 82 0 2 -26 5 -58 6 -31 1 -84 11 -116 22 -33 12 -64 21
-69 21 -6 0 -7 -21 -3 -52z"/>
<path d="M8078 4332 l-58 -3 0 -212 c0 -240 -7 -268 -70 -299 -69 -35 -151
-11 -182 52 -15 30 -18 65 -18 248 l0 212 -60 0 -60 0 0 -227 c0 -219 1 -230
24 -279 43 -93 118 -129 250 -122 89 5 125 19 174 70 54 55 63 105 60 349 l-3
214 -57 -3z"/>
<path d="M9340 4023 l0 -313 60 0 60 0 0 309 0 309 -60 4 -60 3 0 -312z"/>
<path d="M9743 4328 c-38 -8 -41 -11 -34 -31 5 -12 25 -64 45 -114 20 -51 52
-135 72 -185 20 -51 54 -139 76 -195 l40 -103 56 0 57 0 109 283 c60 155 116
297 123 315 l13 32 -63 0 -63 0 -13 -37 c-87 -247 -155 -423 -162 -416 -4 4
-23 51 -42 103 -132 366 -130 360 -151 359 -12 -1 -40 -5 -63 -11z"/>
<path d="M12097 4325 c-78 -27 -117 -84 -117 -171 0 -55 2 -59 43 -99 30 -29
68 -50 129 -73 48 -18 98 -42 112 -53 34 -27 34 -68 0 -100 -23 -21 -34 -24
-98 -23 -51 1 -89 8 -133 26 l-61 25 -6 -45 c-3 -25 -6 -50 -6 -57 0 -22 109
-49 200 -50 104 0 130 7 175 47 49 42 65 77 65 141 0 94 -56 146 -209 198 -73
25 -101 48 -101 84 0 32 51 65 100 65 19 0 65 -11 101 -24 l67 -23 6 45 c3 25
6 50 6 57 0 18 -107 45 -176 45 -32 -1 -76 -7 -97 -15z"/>
<path d="M13732 4328 c-43 -9 -43 -9 -27 -34 9 -14 61 -99 116 -189 l99 -165
0 -115 0 -115 60 0 60 0 0 121 0 122 114 188 114 189 -68 0 -68 0 -73 -130
c-41 -71 -78 -129 -82 -127 -4 1 -41 61 -81 132 -80 142 -80 143 -164 123z"/>
<path d="M4922 4278 l3 -53 93 0 92 0 0 -257 0 -258 65 0 65 0 2 257 3 256 95
1 95 1 -4 45 c-1 25 -5 48 -8 52 -2 5 -117 8 -254 8 l-250 0 3 -52z"/>
<path d="M5670 4020 l0 -310 60 0 59 0 3 133 3 132 133 3 132 3 0 -136 0 -135
65 0 65 0 0 310 0 310 -65 0 -65 0 0 -120 0 -120 -135 0 -135 0 0 120 0 120
-60 0 -60 0 0 -310z"/>
<path d="M6535 4020 l0 -310 203 0 202 0 0 50 0 49 -142 3 -143 3 0 80 0 80
119 3 118 3 -6 37 c-14 77 -6 72 -127 72 l-109 0 0 65 c0 36 3 65 8 65 4 0 66
2 137 3 l130 2 3 53 3 52 -198 0 -198 0 0 -310z"/>
<path d="M8470 4020 l0 -310 55 0 55 0 2 218 3 217 146 -215 146 -215 57 -3
56 -3 0 311 0 310 -55 0 -55 0 0 -201 c0 -123 -4 -199 -10 -197 -8 2 -93 125
-243 350 l-32 48 -62 0 -63 0 0 -310z"/>
<path d="M10530 4020 l0 -310 203 0 202 0 0 47 0 48 -140 5 -140 5 0 80 0 80
116 3 115 3 -3 32 c-10 83 -1 77 -124 77 l-110 0 3 66 3 66 135 2 135 1 3 53
3 52 -200 0 -201 0 0 -310z"/>
<path d="M11240 4020 l0 -310 60 0 60 0 0 115 0 115 33 0 c31 0 39 -8 115
-114 45 -63 86 -117 90 -119 9 -6 122 15 122 22 0 4 -36 55 -80 115 -79 109
-89 126 -70 126 5 0 28 16 49 36 76 68 76 200 -1 271 -43 41 -100 53 -244 53
l-134 0 0 -310z m255 196 c69 -29 82 -97 29 -147 -22 -20 -36 -24 -92 -24
l-67 0 -3 79 c-2 44 -1 85 2 93 7 18 87 17 131 -1z"/>
<path d="M12710 4020 l0 -310 60 0 60 0 0 310 0 310 -60 0 -60 0 0 -310z"/>
<path d="M13070 4276 l0 -55 93 1 92 2 3 -257 2 -257 60 0 60 0 2 257 3 256
98 -1 c107 -1 103 -4 91 71 l-7 37 -248 0 -249 0 0 -54z"/>
<path d="M5104 3067 c-74 -36 -117 -79 -150 -149 -25 -54 -29 -75 -29 -153 0
-76 4 -99 26 -145 31 -67 75 -112 143 -148 74 -39 178 -38 258 1 104 51 158
139 166 269 8 143 -39 244 -144 307 -49 31 -66 35 -138 38 -70 4 -88 1 -132
-20z m184 -96 c47 -24 66 -45 91 -101 49 -107 9 -259 -79 -305 -37 -19 -113
-19 -148 -1 -67 35 -102 104 -102 199 0 108 31 171 102 206 53 26 88 27 136 2z"/>
<path d="M10006 3076 c-50 -19 -103 -70 -117 -114 -37 -111 28 -190 198 -246
74 -25 103 -50 103 -91 0 -25 -7 -39 -27 -55 -25 -19 -37 -22 -103 -18 -48 3
-94 13 -128 28 -29 12 -54 21 -56 19 -2 -2 -7 -27 -11 -56 l-7 -52 67 -20 c88
-27 213 -28 270 -2 78 35 123 115 110 197 -11 77 -49 107 -230 181 -54 22 -72
35 -79 56 -9 24 -6 31 17 55 24 23 35 27 85 26 35 0 76 -9 106 -23 27 -11 50
-20 52 -19 1 2 6 26 12 55 l9 52 -41 17 c-57 23 -181 28 -230 10z"/>
<path d="M11893 3060 c-115 -58 -168 -161 -161 -310 7 -138 57 -222 163 -278
42 -22 63 -26 135 -27 71 0 93 4 135 25 l50 25 -3 49 c-1 27 -4 51 -6 53 -2 3
-28 -8 -58 -23 -86 -44 -188 -35 -240 23 -70 77 -73 253 -5 330 61 69 139 81
231 34 31 -15 58 -25 61 -22 2 4 7 29 10 57 l7 49 -39 19 c-26 13 -67 21 -128
23 -85 4 -93 3 -152 -27z"/>
<path d="M12643 3074 c-61 -22 -136 -94 -164 -156 -33 -74 -35 -230 -3 -299
63 -136 215 -207 355 -165 85 25 142 73 181 153 31 63 33 74 32 163 0 74 -5
105 -22 142 -28 63 -80 119 -139 148 -60 31 -176 37 -240 14z m197 -117 c55
-37 83 -102 83 -192 0 -90 -28 -155 -84 -192 -33 -22 -47 -25 -99 -21 -52 4
-65 9 -96 39 -62 59 -85 145 -64 244 10 46 20 66 55 100 23 24 53 46 66 48 45
10 100 -1 139 -26z"/>
<path d="M17153 3073 c-3 -10 -47 -121 -96 -248 -111 -283 -137 -353 -137
-366 0 -6 23 -9 56 -7 l56 3 30 78 30 78 131 -3 131 -3 28 -79 c16 -44 29 -81
31 -82 4 -4 105 21 111 27 4 4 -41 127 -99 275 -58 148 -112 285 -119 304 -14
35 -14 35 -80 38 -56 2 -67 0 -73 -15z m114 -235 l41 -113 -44 -3 c-24 -2 -63
-2 -87 0 l-43 3 40 112 c23 62 43 113 46 113 4 0 24 -51 47 -112z"/>
<path d="M5810 2765 l0 -316 58 3 57 3 2 130 1 130 112 3 c96 2 111 5 106 18
-3 9 -6 31 -6 50 l0 34 -103 0 c-57 0 -106 2 -108 4 -2 2 -3 36 -1 75 l4 71
129 0 129 0 0 55 0 55 -190 0 -190 0 0 -315z"/>
<path d="M6850 2765 l0 -315 120 0 c65 0 142 5 169 11 100 21 153 81 154 172
1 62 -21 109 -62 133 l-30 18 29 33 c47 53 52 130 13 189 -9 15 -40 37 -68 50
-45 21 -64 24 -187 24 l-138 0 0 -315z m259 204 c38 -13 55 -48 41 -83 -15
-40 -48 -56 -117 -56 l-63 0 0 75 0 75 54 0 c29 0 68 -5 85 -11z m45 -268 c49
-46 25 -125 -42 -139 -18 -4 -57 -5 -87 -4 l-55 4 0 85 0 85 79 -3 c67 -4 83
-8 105 -28z"/>
<path d="M7592 2768 l3 -313 58 -3 57 -3 0 121 0 120 33 0 c30 -1 38 -10 117
-120 47 -66 90 -120 97 -120 22 0 113 22 113 27 0 3 -37 55 -81 116 -75 102
-80 112 -63 122 42 23 83 73 94 115 24 90 -10 175 -90 220 -41 23 -57 25 -193
28 l-147 4 2 -314z m277 183 c50 -36 45 -118 -10 -146 -15 -8 -55 -15 -89 -15
l-60 0 0 88 c0 49 3 92 8 96 12 13 126 -4 151 -23z"/>
<path d="M8350 2765 l0 -315 60 0 60 0 0 315 0 315 -60 0 -60 0 0 -315z"/>
<path d="M8710 3025 l0 -55 95 0 95 0 0 -260 0 -260 60 0 60 0 0 260 0 260
101 0 102 0 -7 38 c-3 20 -6 45 -6 55 0 16 -19 17 -250 17 l-250 0 0 -55z"/>
<path d="M9450 2765 l0 -315 60 0 60 0 0 315 0 315 -60 0 -60 0 0 -315z"/>
<path d="M10572 2768 l3 -313 58 -3 57 -3 0 136 0 135 140 0 140 0 0 -135 0
-135 60 0 60 0 0 315 0 315 -60 0 -60 0 0 -120 0 -120 -140 0 -140 0 0 120 0
120 -60 0 -60 0 2 -312z"/>
<path d="M13320 2765 l0 -315 185 0 186 0 -6 38 c-13 77 -5 72 -131 72 l-114
0 0 260 0 260 -60 0 -60 0 0 -315z"/>
<path d="M13902 2853 c4 -246 8 -266 63 -331 47 -56 98 -76 195 -77 77 0 90 3
140 31 38 22 64 46 85 79 l30 48 3 239 3 238 -60 0 -61 0 0 -210 c0 -230 -5
-259 -55 -298 -21 -16 -41 -22 -81 -22 -48 0 -59 4 -92 34 l-37 34 -3 231 -3
231 -66 0 -65 0 4 -227z"/>
<path d="M14767 3063 c-3 -10 -8 -65 -12 -123 -3 -58 -13 -185 -21 -283 -8
-98 -14 -185 -14 -193 0 -10 14 -14 55 -14 30 0 55 3 55 8 0 4 7 99 15 212 8
113 15 211 15 218 0 6 5 12 10 12 6 0 10 -4 10 -9 0 -5 34 -107 76 -225 l76
-216 58 0 58 0 30 83 c16 45 51 145 77 222 27 77 51 144 55 148 4 5 11 -40 14
-100 4 -59 9 -119 11 -133 2 -14 6 -69 10 -122 l7 -98 60 0 61 0 -6 88 c-12
177 -37 478 -43 510 l-5 32 -78 0 -78 0 -47 -132 c-25 -73 -61 -177 -80 -231
-18 -54 -36 -100 -39 -103 -3 -3 -23 50 -46 118 -23 68 -58 173 -79 233 l-37
110 -82 3 c-71 2 -82 1 -86 -15z"/>
<path d="M15800 2765 l0 -317 148 4 c173 5 224 22 269 89 48 73 28 190 -38
225 l-31 16 26 27 c70 73 51 197 -37 243 -37 20 -60 23 -189 26 l-148 4 0
-317z m257 204 c34 -13 43 -25 43 -65 0 -48 -30 -68 -111 -72 l-69 -4 0 76 0
76 54 0 c30 0 67 -5 83 -11z m49 -272 c31 -37 31 -81 -1 -112 -22 -22 -32 -25
-105 -25 l-80 0 0 86 0 86 81 -4 c74 -3 83 -6 105 -31z"/>
<path d="M16552 2768 l3 -313 63 -3 62 -3 0 316 0 315 -65 0 -65 0 2 -312z"/>
</g>
</svg>
